# xmcd
# Copyright (C) 1995-1998 Ti Kan
#
# Track frame offsets:
#       150
#       110663
#       208164
#
# Disc length: 4660 seconds
#
# Revision: 0
# Processed by: cddbd v1.5.2PL0 Copyright (c) Steve Scherf et al.
# Submitted via: CD-Import v1.0
#
DISCID=28123203
DTITLE=Rolf Und Alexandra Becker - Dickie Dick Dickens Teile 1-12
DYEAR=1900
DGENRE=
TTITLE0=Dickie Dick Dickens 6
TTITLE1=Dickie Dick Dickens 5
TTITLE2=Dickie Dick Dickens 4
EXTD=
EXTT0=
EXTT1=
EXTT2=
PLAYORDER=
